<svg width="32" height="32" viewBox="0 0 32 32" fill="none" xmlns="http://www.w3.org/2000/svg">
<path d="M30.6667 11.7333H28.2C28.0667 11.2667 27.8667 10.8667 27.6667 10.4667L29.4 8.73333C29.9333 8.2 29.9333 7.4 29.4 6.86667L25.2 2.66667C24.9333 2.4 24.6 2.26667 24.2667 2.26667C23.9333 2.26667 23.6 2.4 23.3333 2.66667L21.6 4.4C21.2 4.2 20.7333 4 20.3333 3.86667V1.33333C20.3333 0.6 19.7333 0 19 0H13.0667C12.3333 0 11.7333 0.6 11.7333 1.33333V3.8C11.2667 3.93333 10.8667 4.13333 10.4667 4.33333L8.66667 2.6C8.13333 2.06667 7.26667 2.06667 6.8 2.6L2.6 6.8C2.06667 7.33333 2.06667 8.13333 2.6 8.66667L4.33333 10.4C4.13333 10.8 3.93333 11.2667 3.8 11.6667H1.33333C0.6 11.6667 0 12.2667 0 13V18.9333C0 19.6667 0.6 20.2667 1.33333 20.2667H3.8C3.93333 20.7333 4.13333 21.1333 4.33333 21.5333L2.6 23.3333C2.33333 23.6 2.2 23.9333 2.2 24.2667C2.2 24.6 2.33333 24.9333 2.6 25.2L6.8 29.4C7.33333 29.9333 8.13333 29.9333 8.66667 29.4L10.4 27.6667C10.8 27.8667 11.2667 28.0667 11.6667 28.2V30.6667C11.6667 31.4 12.2667 32 13 32H18.9333C19.6667 32 20.2667 31.4 20.2667 30.6667V28.2C20.7333 28.0667 21.1333 27.8667 21.5333 27.6667L23.2667 29.4C23.8 29.9333 24.6 29.9333 25.1333 29.4L29.3333 25.2C29.6 24.9333 29.7333 24.6 29.7333 24.2667C29.7333 23.9333 29.6 23.6 29.3333 23.3333L27.6 21.6C27.8 21.2 28 20.7333 28.1333 20.3333H30.6667C31.4 20.3333 32 19.7333 32 19V13.0667C32 12.2667 31.4 11.7333 30.6667 11.7333ZM16 21.9333C12.7333 21.9333 10.0667 19.2667 10.0667 16C10.0667 12.7333 12.7333 10.0667 16 10.0667C19.2667 10.0667 21.9333 12.7333 21.9333 16C21.9333 19.2667 19.2667 21.9333 16 21.9333Z" fill="#9E9DBD"/>
</svg>
