<svg width="32" height="32" viewBox="0 0 32 32" fill="none" xmlns="http://www.w3.org/2000/svg">
<path d="M16 0C7.17903 0 0 7.17903 0 16C0 24.821 7.17903 32 16 32C24.821 32 32 24.821 32 16C32 7.17903 24.821 0 16 0ZM25.0846 25.624C24.1978 21.4292 20.4704 18.2772 16 18.2772C11.5296 18.2772 7.80225 21.4292 6.91536 25.624C4.35056 23.203 2.75655 19.7873 2.75655 16C2.75655 8.70112 8.70112 2.75655 16 2.75655C23.2989 2.75655 29.2434 8.70112 29.2434 16C29.2434 19.7873 27.6494 23.215 25.0846 25.624Z" fill="#9E9DBD"/>
<path d="M15.9998 16.0001C18.7136 16.0001 20.9137 13.8001 20.9137 11.0862C20.9137 8.37237 18.7136 6.17236 15.9998 6.17236C13.2859 6.17236 11.0859 8.37237 11.0859 11.0862C11.0859 13.8001 13.2859 16.0001 15.9998 16.0001Z" fill="#9E9DBD"/>
</svg>
