<svg width="32" height="30" viewBox="0 0 32 30" fill="none" xmlns="http://www.w3.org/2000/svg">
<path d="M26.4421 6.66947H4.88421C3.94105 6.66947 3.13263 5.89474 3.13263 4.91789C3.13263 3.94105 3.90737 3.16632 4.88421 3.16632H27.8568C28.7326 3.16632 29.44 2.45895 29.44 1.58316C29.44 0.707368 28.7326 0 27.8568 0H4.9179C2.22316 0 0 2.18947 0 4.88421V24.1516C0 27.2168 2.49263 29.7095 5.55789 29.7095H26.4421C29.5074 29.7095 32 27.2168 32 24.1516V12.2274C32 9.16211 29.5074 6.66947 26.4421 6.66947ZM23.5789 20.8505C22.1305 20.8505 20.9516 19.6716 20.9516 18.2232C20.9516 16.7747 22.1305 15.5958 23.5789 15.5958C25.0274 15.5958 26.2063 16.7747 26.2063 18.2232C26.2063 19.6716 25.0611 20.8505 23.5789 20.8505Z" fill="white"/>
</svg>
