<svg width="24" height="23" viewBox="0 0 24 23" fill="none" xmlns="http://www.w3.org/2000/svg">
<path d="M19.8316 5.0021H3.66316C2.95579 5.0021 2.34947 4.42105 2.34947 3.68842C2.34947 2.95579 2.93053 2.37474 3.66316 2.37474H20.8926C21.5495 2.37474 22.08 1.84421 22.08 1.18737C22.08 0.530526 21.5495 0 20.8926 0H3.68842C1.66737 0 0 1.6421 0 3.66316V18.1137C0 20.4126 1.86947 22.2821 4.16842 22.2821H19.8316C22.1305 22.2821 24 20.4126 24 18.1137V9.17053C24 6.87158 22.1305 5.0021 19.8316 5.0021ZM17.6842 15.6379C16.5979 15.6379 15.7137 14.7537 15.7137 13.6674C15.7137 12.5811 16.5979 11.6968 17.6842 11.6968C18.7705 11.6968 19.6547 12.5811 19.6547 13.6674C19.6547 14.7537 18.7958 15.6379 17.6842 15.6379Z" fill="white"/>
</svg>
