<svg width="566" height="391" viewBox="0 0 566 391" fill="none" xmlns="http://www.w3.org/2000/svg">
<path d="M157.954 86.8823C158.027 88.4393 156.823 89.76 155.266 89.8323C153.709 89.9045 152.388 88.7009 152.316 87.1439C152.244 85.5869 153.447 84.2661 155.004 84.1939C156.561 84.1217 157.882 85.3253 157.954 86.8823Z" fill="#F3F1ED"/>
<path d="M99.2611 354.369C99.2932 355.061 98.7581 355.649 98.0658 355.681C97.3735 355.713 96.7863 355.178 96.7542 354.485C96.7221 353.793 97.2572 353.206 97.9495 353.174C98.6417 353.142 99.229 353.677 99.2611 354.369Z" fill="#F3F1ED"/>
<path d="M120.012 256.903C120.036 257.423 119.635 257.863 119.116 257.887C118.597 257.911 118.156 257.51 118.132 256.991C118.108 256.471 118.509 256.031 119.029 256.007C119.548 255.983 119.988 256.384 120.012 256.903Z" fill="#F3F1ED"/>
<path opacity="0.5" d="M103.051 198.205C103.099 199.242 102.297 200.123 101.259 200.171C100.221 200.219 99.3402 199.417 99.292 198.379C99.2438 197.341 100.046 196.46 101.084 196.412C102.122 196.364 103.003 197.167 103.051 198.205Z" fill="#F3F1ED"/>
<path d="M177.837 136.501C177.95 138.923 176.077 140.977 173.655 141.09C171.233 141.202 169.179 139.33 169.067 136.908C168.954 134.486 170.826 132.431 173.248 132.319C175.67 132.206 177.725 134.079 177.837 136.501Z" fill="#F3F1ED"/>
<path d="M231.208 109.539C231.24 110.231 230.705 110.818 230.013 110.851C229.321 110.883 228.734 110.348 228.701 109.655C228.669 108.963 229.204 108.376 229.897 108.344C230.589 108.312 231.176 108.847 231.208 109.539Z" fill="#F3F1ED"/>
<path d="M217.485 53.6366C217.702 58.3076 214.091 62.2699 209.42 62.4866C204.749 62.7033 200.787 59.0925 200.57 54.4215C200.353 49.7505 203.964 45.7882 208.635 45.5714C213.306 45.3547 217.268 48.9656 217.485 53.6366Z" fill="#F3F1ED"/>
<path d="M124.402 311.72C124.467 313.104 123.397 314.278 122.013 314.342C120.629 314.407 119.455 313.337 119.39 311.953C119.326 310.569 120.396 309.395 121.78 309.33C123.164 309.266 124.338 310.336 124.402 311.72Z" fill="#F3F1ED"/>
<path opacity="0.1" d="M78.5648 107.832C78.5969 108.524 78.0618 109.111 77.3695 109.144C76.6772 109.176 76.09 108.641 76.0579 107.948C76.0258 107.256 76.5609 106.669 77.2532 106.637C77.9454 106.605 78.5327 107.14 78.5648 107.832Z" fill="#F3F1ED"/>
<path opacity="0.5" d="M318.285 49.6285C317.812 48.1432 318.633 46.5559 320.118 46.0832C321.603 45.6104 323.19 46.4312 323.663 47.9164C324.136 49.4017 323.315 50.989 321.83 51.4617C320.345 51.9345 318.757 51.1137 318.285 49.6285Z" fill="#F3F1ED"/>
<path opacity="0.5" d="M286.238 6.84654C285.503 4.53615 286.779 2.06705 289.09 1.33164C291.4 0.596226 293.869 1.87299 294.605 4.18338C295.34 6.49376 294.063 8.96287 291.753 9.69828C289.443 10.4337 286.973 9.15692 286.238 6.84654Z" fill="#F3F1ED"/>
<path opacity="0.5" d="M389.548 8.84504C389.338 8.18468 389.703 7.47895 390.363 7.26875C391.024 7.05856 391.729 7.42349 391.939 8.08385C392.15 8.74421 391.785 9.44994 391.124 9.66014C390.464 9.87034 389.758 9.50541 389.548 8.84504Z" fill="#F3F1ED"/>
<path d="M196.317 359.526C197.469 360.576 197.552 362.361 196.502 363.513C195.452 364.665 193.667 364.748 192.515 363.698C191.363 362.648 191.281 360.863 192.33 359.711C193.38 358.559 195.165 358.476 196.317 359.526Z" fill="#F3F1ED"/>
<path opacity="0.1" d="M245.461 380.553C247.254 382.186 247.382 384.963 245.749 386.755C244.116 388.547 241.339 388.676 239.547 387.043C237.755 385.41 237.626 382.633 239.26 380.841C240.893 379.049 243.669 378.92 245.461 380.553Z" fill="#F3F1ED"/>
<path opacity="0.5" d="M42.1293 302.769C43.1031 301.552 44.8791 301.354 46.0961 302.328C47.3131 303.302 47.5103 305.078 46.5364 306.295C45.5626 307.512 43.7866 307.709 42.5696 306.735C41.3526 305.762 41.1554 303.986 42.1293 302.769Z" fill="#F3F1ED"/>
<path opacity="0.5" d="M45.1798 94.2439C45.6069 93.6981 46.3956 93.602 46.9413 94.0292C47.487 94.4563 47.5831 95.245 47.156 95.7907C46.7288 96.3364 45.9401 96.4325 45.3944 96.0054C44.8487 95.5782 44.7526 94.7896 45.1798 94.2439Z" fill="#F3F1ED"/>
<path opacity="0.1" d="M0.580061 142.862C0.900425 142.453 1.49192 142.381 1.90121 142.701C2.31049 143.021 2.38258 143.613 2.06222 144.022C1.74185 144.431 1.15036 144.503 0.74107 144.183C0.331784 143.863 0.259698 143.271 0.580061 142.862Z" fill="#F3F1ED"/>
<path opacity="0.5" d="M9.16597 185.821C9.80645 185.003 10.989 184.859 11.8073 185.499C12.6255 186.14 12.7696 187.322 12.1291 188.141C11.4887 188.959 10.3061 189.103 9.48786 188.463C8.66961 187.822 8.52549 186.64 9.16597 185.821Z" fill="#F3F1ED"/>
<path d="M34.7717 172.428C36.2866 170.535 39.0493 170.228 40.9424 171.743C42.8356 173.258 43.1422 176.02 41.6274 177.913C40.1125 179.807 37.3498 180.113 35.4567 178.598C33.5635 177.084 33.2569 174.321 34.7717 172.428Z" fill="#F3F1ED"/>
<path opacity="0.1" d="M15.7832 221.6C16.2162 221.059 17.0058 220.972 17.5469 221.405C18.088 221.838 18.1757 222.627 17.7427 223.168C17.3097 223.709 16.5201 223.797 15.979 223.364C15.4379 222.931 15.3502 222.142 15.7832 221.6Z" fill="#F3F1ED"/>
<path opacity="0.1" d="M67.4879 251.096C70.4094 247.445 75.7375 246.853 79.3885 249.775C83.0396 252.696 83.631 258.024 80.7095 261.676C77.788 265.327 72.4599 265.918 68.8089 262.996C65.1578 260.075 64.5664 254.747 67.4879 251.096Z" fill="#F3F1ED"/>
<path opacity="0.1" d="M48.5638 50.9755C49.4178 49.8845 50.9945 49.6923 52.0855 50.5463C53.1766 51.4003 53.3687 52.977 52.5147 54.068C51.6608 55.159 50.084 55.3512 48.993 54.4972C47.902 53.6432 47.7099 52.0665 48.5638 50.9755Z" fill="#F3F1ED"/>
<path opacity="0.5" d="M90.6006 319.859C91.0336 319.318 91.8232 319.23 92.3643 319.663C92.9054 320.096 92.9931 320.886 92.5601 321.427C92.1271 321.968 91.3374 322.055 90.7963 321.622C90.2552 321.189 90.1676 320.4 90.6006 319.859Z" fill="#F3F1ED"/>
<path fill-rule="evenodd" clip-rule="evenodd" d="M360.501 104.014L157.581 201.568C145.095 207.571 139.838 222.56 145.842 235.047L189.048 324.919C195.051 337.406 210.04 342.662 222.527 336.659L425.446 239.105C437.933 233.102 443.189 218.113 437.186 205.626L393.98 115.754C387.977 103.267 372.988 98.0107 360.501 104.014ZM154.864 195.915C139.255 203.419 132.685 222.156 140.189 237.764L183.396 327.636C190.899 343.245 209.636 349.815 225.244 342.311L428.164 244.757C443.772 237.253 450.342 218.517 442.838 202.909L399.632 113.036C392.128 97.4277 373.392 90.8576 357.783 98.3614L154.864 195.915Z" fill="#F3F1ED"/>
<path d="M377.432 178.397L329.103 176.949C324.807 174.858 319.934 174.253 315.251 175.231C310.567 176.209 306.337 178.713 303.224 182.351L258.821 234.359L256.454 206.386C256.382 205.525 255.97 204.728 255.309 204.171C254.649 203.614 253.794 203.343 252.932 203.417C252.071 203.492 251.273 203.905 250.715 204.567C250.157 205.229 249.884 206.085 249.957 206.947L252.864 241.336L250.637 243.945L225.731 200.253C225.518 199.88 225.234 199.552 224.894 199.289C224.555 199.026 224.166 198.833 223.752 198.72C223.337 198.608 222.905 198.578 222.478 198.633C222.052 198.687 221.64 198.825 221.267 199.039C220.893 199.253 220.565 199.538 220.302 199.878C220.038 200.218 219.844 200.607 219.731 201.022C219.617 201.437 219.586 201.87 219.64 202.296C219.694 202.723 219.831 203.134 220.044 203.507L246.131 249.222L245.092 250.439C244.742 250.849 244.404 251.245 244.066 251.641L195.462 210.144C195.143 209.826 194.762 209.577 194.342 209.414C193.922 209.251 193.472 209.176 193.022 209.195C192.571 209.214 192.129 209.325 191.723 209.523C191.318 209.72 190.957 209.999 190.664 210.343C190.371 210.686 190.151 211.086 190.02 211.518C189.889 211.95 189.848 212.404 189.9 212.851C189.952 213.299 190.096 213.731 190.323 214.121C190.55 214.51 190.856 214.848 191.22 215.113L241.038 257.646C239.447 262.404 239.558 267.563 241.352 272.24C243.146 276.917 246.512 280.821 250.873 283.283C255.233 285.745 260.317 286.611 265.253 285.734C270.19 284.857 274.671 282.29 277.929 278.474L336.06 210.386C336.486 209.888 336.911 209.39 337.312 208.92L351.122 249.526C351.26 249.932 351.477 250.306 351.76 250.627C352.044 250.948 352.388 251.21 352.773 251.398C353.158 251.585 353.576 251.694 354.004 251.72C354.432 251.745 354.861 251.685 355.266 251.544C355.82 251.359 356.313 251.027 356.693 250.583C357.101 250.145 357.38 249.604 357.501 249.018C357.621 248.433 357.579 247.826 357.377 247.264L340.981 199.559C341.07 198.951 341.13 198.317 341.165 197.714L363.441 216.733C364.107 217.218 364.932 217.433 365.751 217.336C366.57 217.239 367.322 216.836 367.858 216.208C368.394 215.58 368.674 214.774 368.642 213.95C368.609 213.126 368.267 212.345 367.684 211.764L339.893 188.037C339.755 187.894 339.603 187.764 339.44 187.65C338.832 186.236 338.068 184.896 337.162 183.653L377.2 184.889C378.064 184.915 378.903 184.595 379.533 184.002C380.163 183.409 380.532 182.59 380.559 181.725C380.586 180.861 380.268 180.022 379.676 179.394C379.085 178.765 378.267 178.397 377.403 178.372L377.432 178.397ZM272.91 274.163C271.648 275.753 270.079 277.073 268.297 278.044C266.515 279.015 264.557 279.617 262.539 279.815C260.521 280.012 258.485 279.801 256.552 279.194C254.619 278.587 252.829 277.597 251.288 276.282C249.748 274.966 248.489 273.354 247.586 271.54C246.684 269.726 246.156 267.748 246.035 265.724C245.914 263.7 246.202 261.671 246.881 259.759C247.561 257.847 248.618 256.091 249.99 254.595L308.109 186.522C309.371 184.932 310.94 183.613 312.722 182.642C314.504 181.671 316.462 181.069 318.48 180.871C320.498 180.673 322.534 180.884 324.467 181.491C326.4 182.098 328.191 183.089 329.731 184.404C331.271 185.719 332.53 187.332 333.433 189.146C334.336 190.96 334.863 192.938 334.984 194.962C335.105 196.986 334.818 199.014 334.138 200.926C333.458 202.838 332.401 204.595 331.029 206.091L272.91 274.163Z" fill="#F3F1ED" fill-opacity="0.25"/>
<path d="M266.791 250.206C265.983 249.866 265.736 248.839 266.301 248.168C266.677 247.722 267.305 247.58 267.837 247.822L276.172 251.619C276.183 251.624 276.196 251.621 276.204 251.612C276.212 251.603 276.212 251.59 276.206 251.581L271.42 244.001C271.009 243.35 271.066 242.507 271.563 241.918C272.061 241.326 272.887 241.126 273.6 241.426L281.842 244.886C281.853 244.89 281.865 244.887 281.873 244.878C281.88 244.869 281.881 244.856 281.874 244.846L276.727 237.21C276.411 236.741 276.444 236.119 276.808 235.686C277.358 235.033 278.383 235.1 278.844 235.818L284.791 245.085C285.186 245.7 285.135 246.501 284.664 247.061C284.2 247.611 283.436 247.803 282.768 247.536L274.121 244.085C274.11 244.08 274.097 244.083 274.09 244.092C274.082 244.102 274.081 244.115 274.087 244.125L278.963 252.057C279.34 252.67 279.281 253.455 278.818 254.005C278.347 254.565 277.566 254.753 276.892 254.468L266.791 250.206Z" fill="#F3F1ED"/>
<path d="M291.635 237.055C291.619 237.041 291.595 237.044 291.581 237.06C291.572 237.07 291.57 237.084 291.574 237.097C291.72 237.534 291.724 238.037 291.585 238.605C291.434 239.174 291.14 239.718 290.703 240.237C290.455 240.532 290.155 240.81 289.804 241.071C289.471 241.33 289.107 241.529 288.713 241.666C288.317 241.785 287.907 241.823 287.484 241.78C287.06 241.719 286.646 241.518 286.243 241.178C285.724 240.742 285.439 240.241 285.389 239.677C285.347 239.103 285.451 238.503 285.699 237.877C285.947 237.25 286.295 236.622 286.744 235.991C287.147 235.407 287.563 234.856 287.991 234.336C288.071 234.239 288.059 234.097 287.963 234.017C287.531 233.653 287.073 233.554 286.588 233.72C286.102 233.868 285.667 234.171 285.281 234.629C284.956 235.016 284.72 235.452 284.573 235.938C284.529 236.086 284.492 236.231 284.463 236.373C284.362 236.872 283.97 237.31 283.461 237.327C282.955 237.344 282.525 236.941 282.601 236.44C282.663 236.032 282.772 235.629 282.928 235.231C283.208 234.528 283.584 233.896 284.055 233.336C284.604 232.685 285.14 232.223 285.664 231.951C286.197 231.669 286.706 231.523 287.19 231.513C287.674 231.503 288.128 231.598 288.551 231.798C288.982 231.987 289.371 232.227 289.717 232.518L293.069 235.34C293.541 235.738 293.602 236.443 293.204 236.915L292.854 237.331C292.65 237.574 292.288 237.605 292.045 237.4L291.635 237.055ZM289.548 235.351C289.413 235.237 289.211 235.254 289.097 235.389L288.956 235.557C288.708 235.852 288.461 236.175 288.215 236.525C287.96 236.867 287.76 237.211 287.615 237.559C287.461 237.899 287.383 238.225 287.383 238.537C287.372 238.842 287.497 239.103 287.756 239.322C287.92 239.459 288.089 239.541 288.264 239.567C288.438 239.574 288.611 239.545 288.781 239.48C288.951 239.414 289.115 239.317 289.272 239.188C289.429 239.06 289.572 238.919 289.701 238.767C290.232 238.136 290.476 237.524 290.434 236.931C290.391 236.338 290.096 235.812 289.548 235.351Z" fill="#F3F1ED"/>
<path d="M285.77 225.496C285.264 225.07 285.199 224.315 285.625 223.809C286.051 223.303 286.807 223.238 287.313 223.664L296.373 231.291C296.879 231.717 296.944 232.472 296.518 232.978C296.092 233.484 295.337 233.549 294.831 233.123L285.77 225.496Z" fill="#F3F1ED"/>
<path d="M289.21 221.41C288.704 220.984 288.639 220.229 289.065 219.722C289.491 219.216 290.247 219.152 290.753 219.578L299.813 227.205C300.319 227.631 300.384 228.386 299.958 228.892C299.532 229.398 298.777 229.463 298.271 229.037L289.21 221.41Z" fill="#F3F1ED"/>
<path d="M292.65 217.324C292.144 216.898 292.079 216.142 292.505 215.636C292.931 215.13 293.686 215.065 294.192 215.491L303.253 223.119C303.759 223.545 303.824 224.3 303.398 224.806C302.972 225.312 302.216 225.377 301.71 224.951L292.65 217.324Z" fill="#F3F1ED"/>
<path d="M305.692 213.658C305.992 213.301 305.948 212.75 305.512 212.585C305.259 212.477 304.995 212.429 304.722 212.442C304.448 212.455 304.174 212.537 303.899 212.688C303.623 212.821 303.36 213.035 303.112 213.331C302.649 213.88 302.413 214.482 302.405 215.136C302.39 216.113 303.613 216.127 304.243 215.379L305.692 213.658ZM308.556 211.835C308.633 211.899 308.71 211.964 308.787 212.029C308.919 212.14 308.921 212.337 308.81 212.469L304.923 217.087C304.594 217.478 304.673 218.088 305.171 218.196C305.476 218.243 305.786 218.235 306.103 218.171C306.41 218.099 306.709 217.977 307.001 217.805C307.294 217.634 307.551 217.416 307.774 217.151C308.16 216.693 308.408 216.241 308.52 215.796C308.546 215.681 308.566 215.566 308.578 215.451C308.638 214.905 308.952 214.359 309.487 214.237C310.024 214.115 310.569 214.459 310.564 215.009C310.552 216.152 310.097 217.257 309.199 218.324C308.719 218.894 308.196 219.35 307.63 219.691C307.054 220.024 306.463 220.239 305.855 220.337C305.257 220.424 304.65 220.384 304.037 220.215C303.423 220.029 302.832 219.697 302.266 219.22C301.709 218.751 301.286 218.23 300.997 217.656C300.707 217.064 300.55 216.462 300.524 215.849C300.489 215.228 300.582 214.61 300.803 213.997C301.023 213.364 301.365 212.774 301.828 212.224C302.256 211.715 302.732 211.315 303.255 211.025C303.778 210.717 304.33 210.538 304.913 210.489C305.486 210.433 306.08 210.516 306.697 210.739C307.312 210.944 307.932 211.309 308.556 211.835Z" fill="#F3F1ED"/>
<path d="M307.542 208.653C307.244 209.007 306.715 209.052 306.361 208.754L306.26 208.67C305.906 208.371 305.861 207.843 306.159 207.488C306.457 207.134 306.411 206.605 306.057 206.307L305.597 205.919C305.099 205.501 305.035 204.758 305.454 204.26C305.873 203.762 306.616 203.699 307.114 204.118L307.299 204.274C307.805 204.7 308.561 204.635 308.987 204.129L309.176 203.904C309.497 203.522 310.068 203.473 310.45 203.795C310.832 204.116 310.881 204.687 310.559 205.069L310.37 205.293C309.944 205.799 310.009 206.555 310.515 206.981L312.812 208.914C313.119 209.173 313.421 209.331 313.717 209.389C314.022 209.437 314.345 209.257 314.688 208.85C314.791 208.728 314.893 208.587 314.993 208.429C315.115 208.207 315.413 208.114 315.614 208.268L316.129 208.663C316.412 208.88 316.523 209.26 316.34 209.567C316.311 209.617 316.279 209.667 316.247 209.718C316.096 209.975 315.936 210.205 315.764 210.408C315.353 210.897 314.956 211.241 314.574 211.442C314.183 211.634 313.799 211.729 313.424 211.726C313.048 211.705 312.686 211.609 312.338 211.437C311.988 211.248 311.646 211.011 311.309 210.728L308.723 208.551C308.369 208.253 307.84 208.299 307.542 208.653Z" fill="#F3F1ED"/>
<path opacity="0.1" d="M299.159 381.033C300.951 382.667 301.08 385.443 299.446 387.235C297.813 389.027 295.037 389.156 293.245 387.523C291.452 385.89 291.324 383.113 292.957 381.321C294.59 379.529 297.367 379.4 299.159 381.033Z" fill="#F3F1ED"/>
<path opacity="0.5" d="M504.317 337.718C503.165 336.668 503.082 334.883 504.132 333.731C505.182 332.579 506.967 332.496 508.119 333.546C509.271 334.596 509.354 336.381 508.304 337.533C507.254 338.685 505.469 338.768 504.317 337.718Z" fill="#F3F1ED"/>
<path opacity="0.5" d="M529.257 109.744C529.225 109.052 529.76 108.465 530.452 108.433C531.145 108.4 531.732 108.936 531.764 109.628C531.796 110.32 531.261 110.907 530.569 110.94C529.876 110.972 529.289 110.436 529.257 109.744Z" fill="#F3F1ED"/>
<path opacity="0.5" d="M527.157 175.688C527.133 175.168 527.534 174.728 528.053 174.704C528.573 174.68 529.013 175.081 529.037 175.6C529.061 176.12 528.66 176.56 528.141 176.584C527.622 176.608 527.181 176.207 527.157 175.688Z" fill="#F3F1ED"/>
<path opacity="0.5" d="M561.684 202.653C561.636 201.615 562.438 200.734 563.476 200.686C564.514 200.638 565.395 201.44 565.443 202.478C565.491 203.516 564.689 204.397 563.651 204.445C562.613 204.493 561.732 203.691 561.684 202.653Z" fill="#F3F1ED"/>
<path d="M373.772 336.702C371.98 335.068 371.851 332.292 373.485 330.5C375.118 328.708 377.894 328.579 379.687 330.212C381.479 331.845 381.607 334.622 379.974 336.414C378.341 338.206 375.564 338.335 373.772 336.702Z" fill="#F3F1ED"/>
<path d="M421.626 358.804C421.114 358.337 421.077 357.543 421.544 357.031C422.011 356.519 422.804 356.482 423.316 356.949C423.829 357.416 423.865 358.209 423.399 358.722C422.932 359.234 422.138 359.271 421.626 358.804Z" fill="#F3F1ED"/>
<path d="M454.377 309.098C450.921 305.949 450.672 300.594 453.822 297.138C456.972 293.681 462.327 293.433 465.783 296.583C469.239 299.732 469.487 305.087 466.338 308.543C463.188 312 457.833 312.248 454.377 309.098Z" fill="#F3F1ED"/>
<path d="M503.602 74.7384C503.538 73.3544 504.608 72.1804 505.992 72.1162C507.376 72.052 508.55 73.1219 508.614 74.5059C508.678 75.8899 507.608 77.0639 506.224 77.1281C504.84 77.1923 503.666 76.1224 503.602 74.7384Z" fill="#F3F1ED"/>
<path opacity="0.5" d="M524.481 290.443C523.968 289.976 523.931 289.183 524.398 288.67C524.865 288.158 525.659 288.121 526.171 288.588C526.683 289.055 526.72 289.849 526.253 290.361C525.786 290.873 524.993 290.91 524.481 290.443Z" fill="#F3F1ED"/>
</svg>
