<svg width="313" height="415" viewBox="0 0 313 415" fill="none" xmlns="http://www.w3.org/2000/svg">
<g opacity="0.05">
<path d="M147.326 3.29834C147.326 5.11996 145.849 6.59668 144.028 6.59668C142.206 6.59668 140.729 5.11996 140.729 3.29834C140.729 1.47672 142.206 0 144.028 0C145.849 0 147.326 1.47672 147.326 3.29834Z" fill="#595B79"/>
<path d="M42.8783 273.213C42.8783 274.123 42.3861 274.862 41.7789 274.862C41.1717 274.862 40.6794 274.123 40.6794 273.213C40.6794 272.302 41.1717 271.563 41.7789 271.563C42.3861 271.563 42.8783 272.302 42.8783 273.213Z" fill="#595B79"/>
<path d="M94.5524 195.701C94.5524 196.309 94.0602 196.801 93.453 196.801C92.8458 196.801 92.3535 196.309 92.3535 195.701C92.3535 195.094 92.8458 194.602 93.453 194.602C94.0602 194.602 94.5524 195.094 94.5524 195.701Z" fill="#595B79"/>
<path d="M56.0717 163.818C56.0717 165.032 55.0873 166.016 53.8728 166.016C52.6584 166.016 51.674 165.032 51.674 163.818C51.674 162.603 52.6584 161.619 53.8728 161.619C55.0873 161.619 56.0717 162.603 56.0717 163.818Z" fill="#595B79"/>
<path d="M167.116 61.0193C167.116 63.7517 164.901 65.9668 162.168 65.9668C159.436 65.9668 157.221 63.7517 157.221 61.0193C157.221 58.2869 159.436 56.0718 162.168 56.0718C164.901 56.0718 167.116 58.2869 167.116 61.0193Z" fill="#595B79"/>
<path d="M229.784 32.9835C229.784 33.5907 229.046 34.0829 228.135 34.0829C227.224 34.0829 226.486 33.5907 226.486 32.9835C226.486 32.3763 227.224 31.884 228.135 31.884C229.046 31.884 229.784 32.3763 229.784 32.9835Z" fill="#595B79"/>
<path d="M95.6519 70.3647C95.6519 75.8296 91.2217 80.2598 85.7568 80.2598C80.292 80.2598 75.8618 75.8296 75.8618 70.3647C75.8618 64.8999 80.292 60.4697 85.7568 60.4697C91.2217 60.4697 95.6519 64.8999 95.6519 70.3647Z" fill="#595B79"/>
<path d="M63.7679 233.632C63.7679 235.15 62.5373 236.381 61.0192 236.381C59.5012 236.381 58.2706 235.15 58.2706 233.632C58.2706 232.114 59.5012 230.884 61.0192 230.884C62.5373 230.884 63.7679 232.114 63.7679 233.632Z" fill="#595B79"/>
<path d="M2.68746 164.518C1.99862 164.916 1.1178 164.68 0.720091 163.991C0.322388 163.302 0.558403 162.422 1.24725 162.024C1.93609 161.626 2.81691 161.862 3.21461 162.551C3.61232 163.24 3.3763 164.121 2.68746 164.518Z" fill="#595B79"/>
<path d="M75.2248 134.697C74.7082 134.995 74.0475 134.818 73.7493 134.301C73.451 133.785 73.628 133.124 74.1446 132.826C74.6613 132.528 75.3219 132.705 75.6202 133.221C75.9184 133.738 75.7414 134.399 75.2248 134.697Z" fill="#595B79"/>
<path d="M7.63196 218.694C6.59869 219.29 5.27746 218.936 4.68091 217.903C4.08435 216.87 4.43837 215.549 5.47164 214.952C6.5049 214.355 7.82613 214.709 8.42269 215.743C9.01924 216.776 8.66522 218.097 7.63196 218.694Z" fill="#595B79"/>
<path d="M27.3619 127.407C25.9842 128.202 24.2225 127.73 23.4271 126.353C22.6317 124.975 23.1037 123.213 24.4814 122.418C25.8591 121.623 27.6208 122.095 28.4162 123.472C29.2116 124.85 28.7395 126.612 27.3619 127.407Z" fill="#595B79"/>
<path d="M54.9723 23.0885C54.9723 23.6957 54.2339 24.1879 53.3231 24.1879C52.4123 24.1879 51.674 23.6957 51.674 23.0885C51.674 22.4813 52.4123 21.989 53.3231 21.989C54.2339 21.989 54.9723 22.4813 54.9723 23.0885Z" fill="#595B79"/>
<path d="M141.33 399.989C142.258 398.23 141.584 396.052 139.825 395.125C138.066 394.197 135.888 394.871 134.961 396.63C134.033 398.389 134.707 400.566 136.466 401.494C138.225 402.422 140.402 401.748 141.33 399.989Z" fill="#595B79"/>
<path d="M192.283 352.778C193.768 349.964 192.69 346.479 189.875 344.995C187.061 343.511 183.577 344.589 182.092 347.403C180.608 350.217 181.686 353.702 184.5 355.186C187.314 356.67 190.799 355.592 192.283 352.778Z" fill="#595B79"/>
<path d="M239.922 413.726C240.293 413.023 239.881 412.076 239.001 411.612C238.122 411.149 237.108 411.343 236.737 412.046C236.366 412.75 236.778 413.696 237.658 414.16C238.537 414.624 239.551 414.43 239.922 413.726Z" fill="#595B79"/>
<path d="M119.227 297.273C120.74 294.405 119.641 290.854 116.773 289.341C113.905 287.828 110.354 288.927 108.842 291.795C107.329 294.663 108.428 298.214 111.296 299.727C114.163 301.239 117.715 300.141 119.227 297.273Z" fill="#595B79"/>
<path d="M60.0251 331.868C60.3961 331.164 59.984 330.218 59.1046 329.754C58.2252 329.29 57.2114 329.484 56.8403 330.188C56.4693 330.892 56.8814 331.838 57.7608 332.302C58.6402 332.766 59.654 332.571 60.0251 331.868Z" fill="#595B79"/>
<path fill-rule="evenodd" clip-rule="evenodd" d="M378.303 33.6691L140.37 134.761C125.728 140.982 118.902 157.894 125.123 172.535L169.896 277.915C176.117 292.556 193.029 299.383 207.67 293.162L445.603 192.07C460.245 185.849 467.071 168.937 460.85 154.296L416.077 48.9161C409.856 34.2746 392.944 27.4483 378.303 33.6691ZM137.554 128.133C119.252 135.909 110.719 157.049 118.495 175.351L163.268 280.731C171.044 299.033 192.185 307.566 210.486 299.79L448.419 198.698C466.721 190.922 475.254 169.782 467.478 151.48L422.705 46.1001C414.929 27.7984 393.789 19.2655 375.487 27.0415L137.554 128.133Z" fill="#595B79"/>
<path d="M390.961 166.107L335.716 147.147C331.507 143.197 326.101 140.757 320.347 140.209C314.594 139.662 308.817 141.038 303.923 144.122L234.086 188.246L241.361 155.124C241.586 154.103 241.396 153.037 240.833 152.158C240.27 151.279 239.38 150.661 238.36 150.438C237.339 150.216 236.271 150.408 235.39 150.972C234.51 151.536 233.889 152.426 233.664 153.446L224.717 194.165L221.213 196.379L208.106 137.056C207.994 136.549 207.783 136.07 207.485 135.645C207.188 135.22 206.809 134.858 206.371 134.58C205.933 134.302 205.444 134.112 204.933 134.023C204.421 133.934 203.897 133.946 203.39 134.059C202.882 134.172 202.402 134.383 201.976 134.682C201.55 134.98 201.187 135.359 200.908 135.797C200.629 136.235 200.438 136.724 200.348 137.235C200.257 137.746 200.268 138.27 200.38 138.777L214.127 200.856L212.493 201.888C211.942 202.236 211.41 202.572 210.879 202.908L169.643 137.64C169.389 137.159 169.037 136.736 168.611 136.398C168.185 136.059 167.693 135.812 167.167 135.673C166.64 135.533 166.09 135.504 165.551 135.586C165.013 135.669 164.496 135.862 164.035 136.154C163.574 136.445 163.178 136.828 162.872 137.279C162.566 137.73 162.357 138.239 162.257 138.775C162.156 139.31 162.168 139.86 162.291 140.391C162.414 140.921 162.645 141.42 162.97 141.856L205.236 208.754C201.699 213.674 199.981 219.667 200.378 225.705C200.775 231.744 203.262 237.452 207.413 241.853C211.564 246.253 217.12 249.071 223.129 249.825C229.138 250.578 235.227 249.22 240.352 245.982L331.782 188.217C332.451 187.794 333.121 187.371 333.75 186.973L335.159 238.765C335.173 239.282 335.289 239.792 335.501 240.264C335.713 240.735 336.017 241.161 336.394 241.515C336.771 241.869 337.215 242.145 337.7 242.327C338.185 242.509 338.701 242.593 339.219 242.575C339.924 242.56 340.612 242.353 341.209 241.977C341.836 241.618 342.352 241.093 342.701 240.461C343.049 239.829 343.217 239.113 343.186 238.393L341.332 177.483C341.653 176.814 341.949 176.105 342.205 175.421L361.104 205.334C361.699 206.132 362.573 206.676 363.553 206.857C364.533 207.037 365.545 206.842 366.388 206.309C367.232 205.777 367.843 204.946 368.1 203.984C368.358 203.021 368.242 201.998 367.777 201.118L344.199 163.8C344.091 163.585 343.962 163.382 343.815 163.191C343.619 161.343 343.217 159.523 342.617 157.765L388.371 173.515C389.358 173.853 390.441 173.784 391.38 173.325C392.319 172.866 393.038 172.053 393.378 171.065C393.718 170.078 393.652 168.997 393.194 168.059C392.736 167.122 391.924 166.406 390.936 166.068L390.961 166.107ZM236.103 239.213C234.078 240.596 231.796 241.558 229.392 242.04C226.989 242.523 224.514 242.518 222.115 242.024C219.715 241.53 217.441 240.558 215.428 239.166C213.415 237.774 211.704 235.991 210.397 233.923C209.09 231.854 208.214 229.543 207.822 227.127C207.429 224.711 207.528 222.24 208.112 219.862C208.697 217.483 209.755 215.245 211.223 213.282C212.691 211.319 214.539 209.671 216.657 208.436L308.068 150.683C310.093 149.3 312.375 148.338 314.778 147.855C317.182 147.373 319.657 147.378 322.056 147.872C324.455 148.366 326.729 149.338 328.742 150.729C330.756 152.121 332.467 153.905 333.774 155.973C335.08 158.042 335.956 160.353 336.349 162.769C336.741 165.185 336.642 167.656 336.058 170.034C335.474 172.413 334.416 174.651 332.948 176.614C331.48 178.577 329.632 180.225 327.513 181.46L236.103 239.213Z" fill="#595B79"/>
<path d="M237.612 209.382C236.801 208.7 236.884 207.428 237.775 206.856C238.369 206.475 239.144 206.536 239.671 207.005L247.931 214.369C247.942 214.378 247.958 214.38 247.97 214.372C247.982 214.364 247.987 214.35 247.984 214.336L245.173 203.879C244.931 202.98 245.299 202.029 246.083 201.526C246.87 201.021 247.893 201.086 248.61 201.687L256.881 208.627C256.892 208.636 256.908 208.637 256.92 208.63C256.932 208.622 256.937 208.607 256.933 208.593L253.726 197.942C253.529 197.287 253.789 196.581 254.365 196.212C255.232 195.656 256.391 196.099 256.666 197.092L260.213 209.912C260.449 210.764 260.103 211.67 259.359 212.147C258.627 212.616 257.678 212.564 257.002 212.017L248.259 204.941C248.248 204.932 248.233 204.931 248.22 204.939C248.208 204.947 248.203 204.961 248.206 204.975L250.994 215.871C251.21 216.713 250.861 217.599 250.13 218.068C249.386 218.545 248.418 218.482 247.742 217.913L237.612 209.382Z" fill="#595B79"/>
<path d="M270.982 203.095C270.968 203.074 270.94 203.068 270.918 203.082C270.904 203.09 270.896 203.106 270.897 203.122C270.909 203.679 270.734 204.26 270.37 204.866C269.993 205.468 269.459 205.991 268.769 206.434C268.377 206.685 267.931 206.899 267.433 207.075C266.956 207.255 266.465 207.353 265.961 207.37C265.462 207.366 264.975 207.264 264.503 207.062C264.035 206.84 263.629 206.46 263.285 205.924C262.843 205.235 262.694 204.556 262.838 203.887C262.995 203.209 263.329 202.553 263.839 201.92C264.349 201.286 264.976 200.686 265.72 200.118C266.393 199.589 267.07 199.101 267.751 198.655C267.877 198.572 267.914 198.403 267.833 198.276C267.464 197.702 266.97 197.424 266.352 197.442C265.739 197.439 265.128 197.633 264.519 198.023C264.005 198.353 263.576 198.772 263.234 199.28C263.13 199.435 263.035 199.589 262.951 199.743C262.656 200.283 262.047 200.648 261.454 200.486C260.864 200.324 260.512 199.705 260.779 199.154C260.996 198.706 261.266 198.279 261.588 197.876C262.163 197.165 262.823 196.57 263.567 196.093C264.433 195.537 265.217 195.197 265.919 195.071C266.635 194.936 267.274 194.949 267.836 195.111C268.398 195.273 268.888 195.545 269.304 195.926C269.735 196.299 270.097 196.715 270.392 197.175L273.25 201.63C273.653 202.258 273.471 203.093 272.843 203.496L272.29 203.85C271.968 204.057 271.539 203.963 271.332 203.641L270.982 203.095ZM269.184 200.383C269.069 200.203 268.829 200.151 268.65 200.266L268.427 200.409C268.035 200.66 267.634 200.944 267.226 201.26C266.81 201.564 266.455 201.89 266.164 202.239C265.864 202.576 265.658 202.924 265.545 203.285C265.425 203.633 265.475 203.979 265.696 204.323C265.835 204.54 266.001 204.695 266.194 204.788C266.393 204.859 266.602 204.887 266.822 204.872C267.041 204.857 267.265 204.804 267.492 204.712C267.72 204.62 267.935 204.509 268.138 204.379C268.977 203.84 269.478 203.222 269.64 202.523C269.803 201.824 269.651 201.11 269.184 200.383Z" fill="#595B79"/>
<path d="M268.35 187.661C267.919 186.988 268.114 186.093 268.787 185.662C269.459 185.23 270.354 185.426 270.786 186.098L278.512 198.14C278.943 198.812 278.748 199.707 278.075 200.139C277.403 200.57 276.508 200.375 276.076 199.702L268.35 187.661Z" fill="#595B79"/>
<path d="M273.781 184.176C273.349 183.504 273.545 182.609 274.217 182.177C274.89 181.746 275.785 181.941 276.216 182.614L283.942 194.656C284.374 195.328 284.178 196.223 283.506 196.655C282.833 197.086 281.938 196.891 281.507 196.218L273.781 184.176Z" fill="#595B79"/>
<path d="M279.211 180.692C278.78 180.02 278.975 179.125 279.648 178.693C280.32 178.262 281.215 178.457 281.647 179.13L289.373 191.171C289.804 191.844 289.609 192.739 288.936 193.17C288.264 193.602 287.369 193.406 286.937 192.734L279.211 180.692Z" fill="#595B79"/>
<path d="M295.571 181.128C296.045 180.824 296.192 180.172 295.747 179.826C295.494 179.61 295.207 179.461 294.887 179.378C294.566 179.295 294.22 179.292 293.849 179.368C293.483 179.422 293.104 179.576 292.711 179.827C291.981 180.296 291.493 180.906 291.249 181.657C290.883 182.78 292.29 183.234 293.284 182.596L295.571 181.128ZM299.529 180.049C299.594 180.151 299.66 180.253 299.725 180.355C299.838 180.531 299.77 180.759 299.594 180.872L293.457 184.81C292.938 185.142 292.81 185.875 293.347 186.177C293.682 186.341 294.043 186.443 294.431 186.482C294.811 186.509 295.2 186.475 295.599 186.382C295.997 186.288 296.372 186.129 296.724 185.903C297.333 185.513 297.781 185.081 298.07 184.607C298.141 184.483 298.205 184.357 298.26 184.23C298.524 183.621 299.081 183.104 299.743 183.154C300.406 183.205 300.912 183.797 300.709 184.43C300.287 185.744 299.367 186.857 297.948 187.767C297.191 188.253 296.424 188.591 295.649 188.782C294.866 188.961 294.106 188.997 293.37 188.893C292.648 188.779 291.964 188.516 291.316 188.102C290.674 187.667 290.112 187.073 289.628 186.32C289.153 185.579 288.852 184.827 288.724 184.062C288.601 183.275 288.635 182.524 288.825 181.807C289.006 181.078 289.334 180.399 289.809 179.77C290.29 179.119 290.895 178.56 291.626 178.091C292.302 177.657 292.994 177.366 293.702 177.219C294.415 177.05 295.116 177.041 295.806 177.193C296.487 177.333 297.144 177.641 297.775 178.119C298.412 178.576 298.996 179.219 299.529 180.049Z" fill="#595B79"/>
<path d="M299.496 176.015C299.026 176.317 298.399 176.18 298.097 175.709L298.011 175.576C297.709 175.105 297.846 174.478 298.317 174.176C298.788 173.874 298.924 173.248 298.622 172.777L298.23 172.165C297.805 171.504 297.998 170.624 298.659 170.199C299.32 169.775 300.2 169.967 300.625 170.629L300.783 170.875C301.214 171.548 302.109 171.743 302.782 171.312L303.08 171.12C303.588 170.795 304.264 170.942 304.589 171.45C304.915 171.957 304.767 172.633 304.26 172.959L303.961 173.15C303.289 173.582 303.093 174.477 303.525 175.149L305.483 178.202C305.745 178.61 306.037 178.901 306.358 179.073C306.692 179.237 307.13 179.146 307.671 178.798C307.833 178.694 308.001 178.569 308.174 178.422C308.393 178.209 308.771 178.209 308.948 178.458L309.4 179.098C309.649 179.45 309.641 179.929 309.321 180.217C309.269 180.264 309.215 180.311 309.159 180.358C308.894 180.6 308.626 180.808 308.356 180.981C307.706 181.398 307.125 181.654 306.613 181.748C306.092 181.83 305.616 181.802 305.184 181.665C304.757 181.506 304.374 181.265 304.033 180.943C303.698 180.599 303.388 180.204 303.101 179.757L300.896 176.32C300.594 175.85 299.967 175.713 299.496 176.015Z" fill="#595B79"/>
</g>
</svg>
