<svg width="32" height="32" viewBox="0 0 32 32" fill="none" xmlns="http://www.w3.org/2000/svg">
<path d="M16 0C12.8355 0 9.74207 0.938383 7.11088 2.69649C4.4797 4.45459 2.42894 6.95345 1.21793 9.87706C0.00693248 12.8007 -0.309921 16.0177 0.307443 19.1214C0.924806 22.2251 2.44866 25.0761 4.6863 27.3137C6.92394 29.5513 9.77486 31.0752 12.8786 31.6926C15.9823 32.3099 19.1993 31.9931 22.1229 30.7821C25.0466 29.5711 27.5454 27.5203 29.3035 24.8891C31.0616 22.2579 32 19.1645 32 16C32 11.7565 30.3143 7.68687 27.3137 4.68629C24.3131 1.68571 20.2435 0 16 0ZM21.0019 24.5219C21.2894 24.8063 21.452 25.1933 21.4542 25.5976C21.4563 26.002 21.2977 26.3906 21.0133 26.6781C20.7289 26.9655 20.342 27.1282 19.9376 27.1304C19.5332 27.1325 19.1446 26.9739 18.8571 26.6895L10.2324 18.0952L8.57143 16.4038C8.4553 16.2853 8.35885 16.149 8.28572 16C8.35885 15.851 8.4553 15.7147 8.57143 15.5962L10.2324 13.9048L18.8571 5.31047C19.1446 5.02354 19.5342 4.86254 19.9404 4.86289C20.3465 4.86325 20.7359 5.02494 21.0229 5.31238C21.3098 5.59982 21.4708 5.98948 21.4704 6.39563C21.4701 6.80178 21.3084 7.19115 21.021 7.47809L12.48 16L21.0019 24.5219Z" fill="white"/>
</svg>
