<svg width="632" height="672" viewBox="0 0 632 672" fill="none" xmlns="http://www.w3.org/2000/svg">
<g opacity="0.05">
<path d="M433 6C433 9.31371 435.686 12 439 12C442.314 12 445 9.31371 445 6C445 2.68629 442.314 0 439 0C435.686 0 433 2.68629 433 6Z" fill="#595B79"/>
<path d="M626 509.5C626 510.881 627.343 512 629 512C630.657 512 632 510.881 632 509.5C632 508.119 630.657 507 629 507C627.343 507 626 508.119 626 509.5Z" fill="#595B79"/>
<path d="M531 366C531 367.105 531.895 368 533 368C534.105 368 535 367.105 535 366C535 364.895 534.105 364 533 364C531.895 364 531 364.895 531 366Z" fill="#595B79"/>
<path d="M602 305C602 307.209 603.791 309 606 309C608.209 309 610 307.209 610 305C610 302.791 608.209 301 606 301C603.791 301 602 302.791 602 305Z" fill="#595B79"/>
<path d="M395 114.5C395 119.747 399.253 124 404.5 124C409.747 124 414 119.747 414 114.5C414 109.253 409.747 105 404.5 105C399.253 105 395 109.253 395 114.5Z" fill="#595B79"/>
<path d="M278 62C278 63.6569 279.343 65 281 65C282.657 65 284 63.6569 284 62C284 60.3431 282.657 59 281 59C279.343 59 278 60.3431 278 62Z" fill="#595B79"/>
<path d="M528 131C528 140.941 536.283 149 546.5 149C556.717 149 565 140.941 565 131C565 121.059 556.717 113 546.5 113C536.283 113 528 121.059 528 131Z" fill="#595B79"/>
<path d="M587 437C587 439.761 589.462 442 592.5 442C595.538 442 598 439.761 598 437C598 434.239 595.538 432 592.5 432C589.462 432 587 434.239 587 437Z" fill="#595B79"/>
<path d="M605 43C605 44.6569 606.119 46 607.5 46C608.881 46 610 44.6569 610 43C610 41.3431 608.881 40 607.5 40C606.119 40 605 41.3431 605 43Z" fill="#595B79"/>
<path opacity="0.5" fill-rule="evenodd" clip-rule="evenodd" d="M269.318 148.896L-174.877 337.624C-202.211 349.237 -214.955 380.81 -203.342 408.144L-119.755 604.877C-108.141 632.211 -76.5681 644.955 -49.2341 633.342L394.962 444.614C422.296 433.001 435.04 401.427 423.426 374.093L339.839 177.36C328.226 150.026 296.652 137.283 269.318 148.896ZM-180.134 325.251C-214.302 339.767 -230.232 379.234 -215.715 413.401L-132.128 610.134C-117.611 644.302 -78.1445 660.232 -43.9771 645.715L400.219 456.987C434.386 442.47 450.316 403.004 435.799 368.836L352.212 172.103C337.695 137.936 298.229 122.006 264.061 136.523L-180.134 325.251Z" fill="#595B79"/>
<path d="M327.245 284.13L223.669 280.43C214.485 275.894 204.048 274.538 193.997 276.576C183.945 278.614 174.847 283.93 168.129 291.69L72.3092 402.622L67.58 342.633C67.4353 340.785 66.5625 339.072 65.1536 337.87C63.7448 336.669 61.9152 336.077 60.0675 336.226C58.2197 336.375 56.5051 337.251 55.3009 338.663C54.0967 340.075 53.5014 341.907 53.6462 343.755L59.454 417.504L54.6469 423.07L1.79949 329.107C1.34789 328.304 0.742546 327.599 0.0180179 327.031C-0.706512 326.464 -1.53604 326.044 -2.4232 325.798C-3.31036 325.551 -4.23777 325.482 -5.15249 325.594C-6.06722 325.706 -6.95134 325.997 -7.75437 326.45C-8.5574 326.903 -9.26361 327.511 -9.8327 328.237C-10.4018 328.962 -10.8226 329.793 -11.0711 330.681C-11.3196 331.569 -11.3909 332.497 -11.281 333.412C-11.1711 334.327 -10.8821 335.21 -10.4305 336.013L44.9245 434.326L42.6829 436.921C41.9267 437.796 41.1976 438.64 40.4684 439.484L-63.2042 349.935C-63.8843 349.25 -64.699 348.713 -65.5971 348.357C-66.4953 348.002 -67.4575 347.837 -68.4235 347.871C-69.3895 347.906 -70.3383 348.139 -71.2105 348.558C-72.0827 348.976 -72.8595 349.57 -73.492 350.302C-74.1246 351.035 -74.5993 351.89 -74.8865 352.813C-75.1736 353.737 -75.2669 354.71 -75.1606 355.671C-75.0542 356.631 -74.7505 357.559 -74.2685 358.396C-73.7865 359.233 -73.1365 359.961 -72.3594 360.534L33.9026 452.32C30.4334 462.498 30.608 473.559 34.3965 483.607C38.185 493.655 45.3515 502.064 54.6681 507.395C63.9847 512.726 74.8715 514.646 85.4632 512.826C96.0549 511.006 105.692 505.559 112.724 497.42L238.169 352.189C239.088 351.126 240.006 350.063 240.87 349.063L269.971 436.272C270.262 437.143 270.723 437.948 271.326 438.64C271.929 439.332 272.664 439.897 273.487 440.304C274.31 440.711 275.206 440.95 276.123 441.009C277.04 441.069 277.959 440.946 278.829 440.648C280.019 440.258 281.081 439.552 281.901 438.606C282.78 437.673 283.385 436.516 283.651 435.263C283.917 434.009 283.833 432.708 283.408 431.5L248.849 329.04C249.048 327.738 249.185 326.382 249.267 325.088L296.782 366.13C298.203 367.179 299.969 367.651 301.725 367.453C303.482 367.254 305.101 366.4 306.257 365.061C307.414 363.722 308.024 361.996 307.964 360.229C307.905 358.463 307.181 356.785 305.938 355.531L246.66 304.329C246.365 304.021 246.042 303.741 245.693 303.494C244.407 300.457 242.787 297.574 240.861 294.898L326.667 298.043C328.519 298.108 330.322 297.434 331.679 296.17C333.037 294.906 333.838 293.155 333.906 291.303C333.975 289.45 333.305 287.649 332.044 286.293C330.783 284.938 329.035 284.14 327.183 284.076L327.245 284.13ZM102.018 488.118C99.2932 491.51 95.9142 494.32 92.0827 496.379C88.2513 498.438 84.046 499.705 79.7178 500.104C75.3897 500.503 71.0275 500.026 66.8915 498.701C62.7555 497.376 58.9306 495.23 55.645 492.392C52.3593 489.554 49.6804 486.082 47.7681 482.182C45.8558 478.283 44.7492 474.037 44.5145 469.696C44.2798 465.356 44.9218 461.011 46.4021 456.921C47.8823 452.831 50.1706 449.079 53.1302 445.89L178.549 300.691C181.274 297.299 184.653 294.489 188.485 292.43C192.316 290.371 196.521 289.104 200.85 288.705C205.178 288.306 209.54 288.783 213.676 290.108C217.812 291.433 221.637 293.579 224.922 296.417C228.208 299.255 230.887 302.727 232.799 306.627C234.712 310.526 235.818 314.773 236.053 319.113C236.288 323.453 235.646 327.798 234.165 331.888C232.685 335.978 230.397 339.73 227.437 342.919L102.018 488.118Z" fill="#595B79"/>
<path d="M89.196 436.691C87.4681 435.95 86.952 433.748 88.171 432.317C88.9829 431.363 90.3305 431.067 91.4671 431.593L109.288 439.835C109.312 439.846 109.339 439.84 109.356 439.82C109.372 439.801 109.374 439.774 109.361 439.753L99.1958 423.448C98.3221 422.046 98.4559 420.241 99.5267 418.983C100.603 417.72 102.375 417.303 103.901 417.954L121.524 425.471C121.547 425.481 121.574 425.475 121.59 425.456C121.607 425.436 121.608 425.408 121.594 425.387L110.655 408.956C109.983 407.946 110.062 406.614 110.848 405.69C112.034 404.298 114.23 404.452 115.209 405.997L127.844 425.935C128.683 427.259 128.562 428.975 127.546 430.169C126.546 431.343 124.906 431.744 123.477 431.164L104.984 423.659C104.96 423.65 104.933 423.656 104.917 423.676C104.9 423.695 104.898 423.723 104.911 423.745L115.264 440.807C116.064 442.126 115.929 443.808 114.929 444.982C113.913 446.176 112.237 446.569 110.796 445.951L89.196 436.691Z" fill="#595B79"/>
<path d="M142.612 408.807C142.578 408.778 142.526 408.782 142.497 408.816C142.478 408.838 142.472 408.868 142.481 408.896C142.789 409.835 142.791 410.912 142.486 412.128C142.156 413.346 141.52 414.509 140.576 415.616C140.04 416.246 139.394 416.839 138.638 417.394C137.921 417.945 137.139 418.365 136.291 418.655C135.442 418.905 134.563 418.982 133.657 418.884C132.748 418.747 131.864 418.312 131.003 417.579C129.896 416.637 129.293 415.561 129.192 414.351C129.11 413.119 129.338 411.834 129.878 410.495C130.417 409.156 131.172 407.813 132.142 406.466C133.013 405.22 133.911 404.042 134.836 402.933C135.007 402.728 134.983 402.422 134.779 402.249C133.857 401.463 132.876 401.246 131.835 401.596C130.793 401.907 129.855 402.551 129.023 403.528C128.32 404.353 127.809 405.286 127.489 406.325C127.392 406.642 127.312 406.952 127.248 407.256C127.025 408.326 126.18 409.26 125.088 409.29C124.003 409.32 123.087 408.45 123.256 407.378C123.393 406.503 123.632 405.641 123.971 404.79C124.581 403.286 125.394 401.936 126.411 400.742C127.595 399.352 128.75 398.369 129.877 397.793C131.023 397.195 132.115 396.888 133.153 396.873C134.191 396.858 135.162 397.067 136.066 397.5C136.989 397.911 137.819 398.43 138.557 399.059L145.708 405.149C146.715 406.007 146.836 407.519 145.978 408.527L145.223 409.413C144.782 409.931 144.005 409.993 143.487 409.552L142.612 408.807ZM138.16 405.128C137.872 404.882 137.439 404.917 137.193 405.206L136.889 405.563C136.352 406.192 135.819 406.881 135.289 407.628C134.738 408.358 134.305 409.095 133.99 409.838C133.654 410.564 133.484 411.262 133.479 411.932C133.454 412.585 133.717 413.147 134.271 413.618C134.619 413.915 134.981 414.092 135.356 414.149C135.73 414.167 136.099 414.107 136.464 413.969C136.83 413.83 137.182 413.624 137.521 413.351C137.86 413.078 138.168 412.778 138.445 412.452C139.592 411.106 140.123 409.797 140.039 408.526C139.954 407.256 139.328 406.123 138.16 405.128Z" fill="#595B79"/>
<path d="M130.184 383.958C129.105 383.039 128.975 381.418 129.894 380.339C130.813 379.259 132.434 379.13 133.513 380.049L152.841 396.51C153.92 397.429 154.05 399.049 153.13 400.129C152.211 401.208 150.591 401.338 149.511 400.419L130.184 383.958Z" fill="#595B79"/>
<path d="M137.607 375.242C136.528 374.322 136.398 372.702 137.318 371.623C138.237 370.543 139.857 370.413 140.937 371.333L160.264 387.793C161.343 388.713 161.473 390.333 160.554 391.413C159.635 392.492 158.014 392.622 156.935 391.702L137.607 375.242Z" fill="#595B79"/>
<path d="M145.031 366.525C143.952 365.606 143.822 363.986 144.741 362.906C145.66 361.827 147.281 361.697 148.36 362.616L167.688 379.077C168.767 379.997 168.897 381.617 167.977 382.696C167.058 383.776 165.438 383.906 164.358 382.986L145.031 366.525Z" fill="#595B79"/>
<path d="M173.032 358.829C173.681 358.067 173.593 356.884 172.659 356.527C172.118 356.29 171.554 356.185 170.967 356.21C170.381 356.234 169.792 356.407 169.2 356.728C168.607 357.009 168.042 357.465 167.506 358.095C166.507 359.268 165.994 360.554 165.968 361.956C165.924 364.051 168.547 364.096 169.906 362.5L173.032 358.829ZM179.195 354.955C179.359 355.095 179.523 355.234 179.687 355.374C179.969 355.614 179.971 356.036 179.731 356.319L171.341 366.169C170.632 367.002 170.793 368.311 171.861 368.548C172.513 368.654 173.179 368.64 173.858 368.507C174.517 368.356 175.16 368.099 175.788 367.734C176.417 367.37 176.971 366.906 177.452 366.341C178.284 365.364 178.823 364.399 179.069 363.447C179.126 363.2 179.169 362.953 179.197 362.708C179.331 361.538 180.011 360.372 181.16 360.117C182.312 359.861 183.477 360.605 183.459 361.784C183.42 364.234 182.431 366.597 180.492 368.874C179.456 370.09 178.33 371.06 177.112 371.784C175.874 372.491 174.603 372.945 173.3 373.146C172.016 373.326 170.717 373.232 169.405 372.864C168.09 372.456 166.829 371.737 165.62 370.708C164.431 369.696 163.531 368.573 162.919 367.34C162.306 366.068 161.975 364.775 161.928 363.461C161.86 362.129 162.067 360.807 162.549 359.494C163.029 358.141 163.768 356.879 164.767 355.706C165.692 354.62 166.717 353.77 167.842 353.154C168.965 352.5 170.152 352.124 171.401 352.027C172.63 351.912 173.904 352.097 175.222 352.583C176.539 353.03 177.863 353.821 179.195 354.955Z" fill="#595B79"/>
<path d="M177.06 348.122C176.416 348.878 175.282 348.969 174.526 348.325L174.312 348.143C173.557 347.499 173.466 346.365 174.109 345.609C174.753 344.854 174.662 343.719 173.906 343.076L172.924 342.239C171.863 341.335 171.735 339.742 172.639 338.681C173.543 337.619 175.136 337.492 176.198 338.396L176.594 338.733C177.673 339.652 179.293 339.522 180.213 338.443L180.621 337.964C181.315 337.149 182.538 337.051 183.353 337.745C184.167 338.439 184.265 339.662 183.571 340.477L183.163 340.956C182.244 342.035 182.374 343.656 183.453 344.575L188.353 348.748C189.009 349.306 189.653 349.649 190.287 349.777C190.939 349.883 191.635 349.501 192.375 348.633C192.597 348.372 192.817 348.072 193.035 347.733C193.297 347.26 193.939 347.064 194.367 347.396L195.466 348.25C196.07 348.719 196.303 349.535 195.908 350.191C195.844 350.297 195.776 350.404 195.705 350.513C195.38 351.061 195.033 351.552 194.663 351.986C193.775 353.029 192.921 353.762 192.099 354.187C191.258 354.594 190.435 354.792 189.63 354.782C188.824 354.732 188.049 354.522 187.305 354.15C186.559 353.739 185.827 353.229 185.11 352.618L179.593 347.919C178.838 347.276 177.703 347.367 177.06 348.122Z" fill="#595B79"/>
</g>
</svg>
