<svg width="32" height="29" viewBox="0 0 32 29" fill="none" xmlns="http://www.w3.org/2000/svg">
<path d="M1.24561 0.833718C0 1.9551 0 3.90744 0 7.81215V28.6211H17.879V19.7245L6.58736 19.2111V16.3881H24.7969L23.4797 17.7054C23.3125 17.8727 23.2287 17.9564 23.1675 18.0264C22.0677 19.2842 22.3148 21.2279 23.6967 22.1901C23.7736 22.2436 23.8758 22.3051 24.08 22.4282L32 14.5082L24.0154 6.52355C23.8122 6.64494 23.7104 6.70572 23.634 6.75861C22.2598 7.70958 22.0286 9.65134 23.1387 10.9181C23.2004 10.9886 23.2847 11.0729 23.4534 11.2415L24.836 12.6241H17.879V8.10932C17.879 4.88709 17.879 3.276 16.9124 2.20231C15.9458 1.12862 14.3436 0.959963 11.1391 0.622643L8.31607 0.325484C4.43284 -0.0832763 2.49122 -0.287652 1.24561 0.833718Z" fill="#9E9DBD"/>
</svg>
