<svg width="32" height="36" viewBox="0 0 32 36" fill="none" xmlns="http://www.w3.org/2000/svg">
<path fill-rule="evenodd" clip-rule="evenodd" d="M32 15.246L16.7539 19.3312C16.2797 18.4772 16.0427 18.0502 15.9223 17.6852C15.2821 15.7446 16.1789 13.63 18.0191 12.7412C18.3652 12.5741 18.8369 12.4477 19.7805 12.1949L20.2954 12.0569C18.1892 10.6802 15.5282 10.1717 12.9065 10.8742C8.01734 12.1843 5.11595 17.2097 6.42602 22.0988C7.73598 26.9879 12.7615 29.8893 17.6506 28.5793C20.9926 27.6838 23.4058 25.0523 24.18 21.915L30.1144 23.3737C28.8241 28.6027 24.8019 32.9886 19.2319 34.481C11.0834 36.6644 2.70767 31.8287 0.524266 23.6801C-1.65914 15.5316 3.17658 7.15588 11.3251 4.97248C15.6 3.82702 19.9374 4.61342 23.4105 6.79652L23.2478 6.18927C22.9949 5.24571 22.8686 4.77394 22.8402 4.3907C22.6898 2.35273 24.0727 0.518729 26.0735 0.102849C26.4498 0.0246463 26.938 0.0164305 27.9148 0L32 15.246ZM24.5038 10.8767L24.4278 10.9496L24.5169 10.9257L24.5038 10.8767Z" fill="#9E9DBD"/>
</svg>
