<svg width="168" height="91" viewBox="0 0 168 91" fill="none" xmlns="http://www.w3.org/2000/svg">
<circle cx="32" cy="59" r="32" fill="white"/>
<path fill-rule="evenodd" clip-rule="evenodd" d="M32.0845 63.0299C32.6703 63.6157 32.6703 64.5654 32.0845 65.1512L27.2612 69.9745C26.6754 70.5603 25.7256 70.5603 25.1399 69.9745C24.5541 69.3887 24.5541 68.439 25.1399 67.8532L29.9631 63.0299C30.5489 62.4441 31.4987 62.4441 32.0845 63.0299Z" fill="#70718A"/>
<path fill-rule="evenodd" clip-rule="evenodd" d="M32.0839 63.0294C32.3653 63.3107 32.5233 63.6922 32.5233 64.0901L32.5233 68.0956C32.5233 68.924 31.8518 69.5956 31.0233 69.5956C30.1949 69.5956 29.5233 68.924 29.5233 68.0956V65.5903L27.0186 65.5906C26.1901 65.5907 25.5185 64.9193 25.5184 64.0908C25.5183 63.2624 26.1897 62.5907 27.0182 62.5906L31.0231 62.5901C31.421 62.59 31.8026 62.7481 32.0839 63.0294Z" fill="#70718A"/>
<path d="M46.6407 48.1417L19.3847 48.1386C18.865 48.1386 18.4437 47.717 18.4437 47.1969C18.4437 46.6776 18.865 46.2567 19.3847 46.2567L43.0833 46.2529C43.7055 46.2529 44.2098 45.7483 44.2098 45.1265C44.2098 44.5039 43.7055 44 43.0833 44H18.6284C17.1794 44 16 45.1794 16 46.6284V70.3312C16 71.0815 16.6083 71.6901 17.3593 71.6901H20.2483C22.0101 74.4586 25.1034 76.3011 28.6206 76.3011C32.1378 76.3011 35.2311 74.459 36.9929 71.6905H46.6407C47.3917 71.6905 48 71.0818 48 70.3316V49.5013C48 48.7503 47.3917 48.1417 46.6407 48.1417ZM28.6206 74.4237C24.1868 74.4237 20.5799 70.8171 20.5799 66.3837C20.5799 66.0499 20.6009 65.7135 20.6418 65.3834C21.139 61.3698 24.5694 58.343 28.6206 58.343C29.6584 58.343 30.6674 58.5375 31.6204 58.9201C34.6825 60.1521 36.6613 63.0813 36.6613 66.3837C36.6613 70.8167 33.0544 74.4237 28.6206 74.4237ZM45.9209 57.3265H38.5579C37.166 57.3265 36.0376 56.1985 36.0376 54.8066C36.0376 53.4139 37.166 52.2859 38.5579 52.2859H45.9209V57.3265ZM37.7266 54.8066C37.7266 55.4029 38.2099 55.8869 38.8069 55.8869C39.4039 55.8869 39.8872 55.4029 39.8872 54.8066C39.8872 54.2096 39.4039 53.7263 38.8069 53.7263C38.2099 53.7263 37.7266 54.2096 37.7266 54.8066Z" fill="#70718A"/>
<circle cx="96" cy="24" r="24" fill="white"/>
<path d="M105.536 13.3521C106.333 13.8207 106.762 14.6706 107.214 16.1313L82.2855 22.6026C81.9242 21.0318 81.864 20.0414 82.3499 19.2148C83.0344 18.0503 84.5302 17.6745 87.5218 16.9227L100.036 13.7784C102.943 13.0479 104.397 12.6826 105.536 13.3521Z" fill="#70718A"/>
<path d="M83.4272 26.9545L108.282 20.0193L109.168 23.3264C109.933 26.1809 110.315 27.6081 109.68 28.7496C109.044 29.8912 107.629 30.318 104.8 31.1716L92.443 34.9001C89.4475 35.8039 87.9498 36.2559 86.7567 35.5916C85.5635 34.9273 85.1586 33.4162 84.3488 30.394L83.4272 26.9545Z" fill="#70718A"/>
<circle cx="148" cy="71" r="20" fill="white"/>
<path fill-rule="evenodd" clip-rule="evenodd" d="M158.393 76.2953C155.47 82.0327 148.45 84.3154 142.712 81.3966L142.697 81.3889C136.963 78.462 134.684 71.4418 137.607 65.7045C140.532 59.9647 147.556 57.6825 153.295 60.6071C159.035 63.5316 161.317 70.5555 158.393 76.2953ZM144.741 71.4911C144.984 70.922 145.256 70.3404 145.555 69.754C145.8 69.2731 146.053 68.8088 146.311 68.3643C147.019 68.8784 147.792 69.354 148.623 69.7772C149.454 70.2004 150.293 70.5467 151.125 70.8172C150.917 71.2874 150.69 71.765 150.445 72.2459C150.147 72.8324 149.836 73.394 149.518 73.9254C148.715 73.6193 147.892 73.255 147.066 72.834C146.239 72.4129 145.461 71.9612 144.741 71.4911ZM143.789 74.1219C143.07 76.5982 143.072 78.4941 143.947 78.9454L143.954 78.9494C144.834 79.3917 146.369 78.279 147.949 76.2414C147.242 75.9617 146.529 75.6411 145.82 75.2794C145.11 74.9176 144.431 74.5299 143.789 74.1219ZM142.494 69.8052C141.382 68.8366 140.541 67.8532 140.054 66.9476C140.642 65.7954 141.445 64.8254 142.391 64.062C142.848 64.9102 143.466 65.7501 144.224 66.5465C143.833 67.1656 143.459 67.821 143.109 68.508C142.889 68.9408 142.684 69.3739 142.494 69.8052ZM141.513 72.4704C141.111 73.8233 140.876 75.1158 140.811 76.2827C139.51 74.5105 138.9 72.2998 139.124 70.0962C139.79 70.9073 140.593 71.7077 141.513 72.4704ZM150.623 77.1123C149.765 78.2327 148.857 79.1824 147.952 79.9214C150.15 79.9315 152.297 79.126 153.948 77.6497C152.9 77.5873 151.781 77.4084 150.623 77.1123ZM155.949 75.0466C156.536 73.8939 156.848 72.6735 156.91 71.4601C155.955 71.5887 154.912 71.5824 153.823 71.4375C153.551 72.1176 153.241 72.805 152.891 73.4919C152.67 73.9248 152.44 74.3451 152.203 74.7518C153.64 75.0827 154.93 75.1847 155.949 75.0466ZM149.869 67.3319C149.123 66.9519 148.432 66.5294 147.806 66.0805C149.474 63.8364 151.126 62.5818 152.049 63.0524C152.973 63.5231 152.929 65.5969 152.094 68.2651C151.363 68.0229 150.615 67.7119 149.869 67.3319ZM154.677 68.845C155.393 68.9231 156.06 68.9194 156.653 68.8335C156.372 67.7159 155.877 66.6551 155.189 65.7171C155.135 66.6856 154.964 67.7407 154.677 68.845ZM144.667 62.7263C144.945 63.256 145.334 63.7977 145.818 64.3311C146.543 63.4503 147.296 62.6918 148.048 62.0784C146.885 62.0731 145.736 62.2962 144.667 62.7263Z" fill="#70718A"/>
</svg>
