<svg width="155" height="63" viewBox="0 0 155 63" fill="none" xmlns="http://www.w3.org/2000/svg">
<rect width="155" height="63" rx="31.5" fill="#C07374" fill-opacity="0.5"/>
<path fill-rule="evenodd" clip-rule="evenodd" d="M44 17C42.0443 17 40.7427 19.2639 38.1391 23.7917L31.2333 35.8019C28.6437 40.3056 27.3489 42.5574 28.3252 44.2449C29.3015 45.9325 31.8991 45.9325 37.0942 45.9325H50.9058C56.1009 45.9325 58.6985 45.9325 59.6748 44.2449C60.6511 42.5574 59.3563 40.3056 56.7667 35.8019L49.8608 23.7917C47.2573 19.2639 45.9556 17 44 17ZM42.5886 24.8047H41.8873L42.1748 31.7061C42.2387 33.2386 42.2707 34.0049 42.7611 34.4753C43.2515 34.9457 44.0184 34.9457 45.5523 34.9457H45.6902L45.9659 28.3258C46.0349 26.672 46.0694 25.8451 45.5704 25.3249C45.0714 24.8047 44.2438 24.8047 42.5886 24.8047ZM46.1127 39.5937C46.1127 40.7605 45.1668 41.7064 44 41.7064C42.8331 41.7064 41.8873 40.7605 41.8873 39.5937C41.8873 38.4269 42.8331 37.481 44 37.481C45.1668 37.481 46.1127 38.4269 46.1127 39.5937Z" fill="#F3F1ED" fill-opacity="0.85"/>
<path d="M107.898 17C115.728 16.9999 116.65 25.2711 114.347 29.8978C112.044 34.5244 103.752 34.5243 101.449 29.8977C99.1458 25.2712 100.067 17.0001 107.898 17Z" fill="#F3F1ED" fill-opacity="0.85"/>
<path d="M107.898 36.3464C108.445 36.3464 108.977 36.3626 109.492 36.3936C109.057 37.5228 108.819 38.7494 108.819 40.0316C108.819 41.8635 109.305 43.582 110.155 45.0648C104.609 45.231 98.7275 44.7816 95 43.7166C95 40.0315 99.6063 36.3464 107.898 36.3464Z" fill="#F3F1ED" fill-opacity="0.85"/>
<path d="M125.949 36.8895L118.038 45.5591L111.583 38.189C112.221 37.5506 112.541 37.2313 112.912 37.0911C113.265 36.9573 113.652 36.9358 114.019 37.0294C114.403 37.1275 114.756 37.4093 115.461 37.9729L118.038 40.0316L125.862 33.1221C126.422 33.6816 126.702 33.9614 126.841 34.2732C127.041 34.7236 127.053 35.2356 126.873 35.6948C126.749 36.0126 126.482 36.3049 125.949 36.8895Z" fill="#F3F1ED" fill-opacity="0.85"/>
</svg>
