<svg width="96" height="96" viewBox="0 0 96 96" fill="none" xmlns="http://www.w3.org/2000/svg">
<circle cx="48" cy="48" r="48" fill="white"/>
<path d="M44.7726 33.4547C44.7726 30.4119 44.7726 28.8905 43.8275 27.9453C42.8822 27 41.3608 27 38.3179 27H30.5241C27.3635 27 25.7832 27 24.8304 27.9933C23.8777 28.9866 23.9434 30.5655 24.075 33.7234L24.344 40.1781C24.4659 43.1045 24.5269 44.5676 25.4633 45.466C26.3998 46.3641 27.8642 46.3641 30.7931 46.3641H38.3179C41.3608 46.3641 42.8822 46.3641 43.8275 45.4188C44.7726 44.4735 44.7726 42.9522 44.7726 39.9094V33.4547Z" fill="#70718A"/>
<path d="M44.7726 59.2736C44.7726 56.2308 44.7726 54.7094 43.8275 53.7641C42.8822 52.8188 41.3608 52.8188 38.3179 52.8188H31.331C28.1703 52.8188 26.59 52.8188 25.6373 53.8121C24.6845 54.8054 24.7503 56.3844 24.8819 59.5422L25.1508 65.9969C25.2727 68.9234 25.3337 70.3865 26.2702 71.2846C27.2066 72.183 28.6711 72.183 31.5999 72.183H38.3179C41.3608 72.183 42.8822 72.183 43.8275 71.2377C44.7726 70.2924 44.7726 68.771 44.7726 65.7283V59.2736Z" fill="#70718A"/>
<path d="M51.2275 33.4547C51.2275 30.4119 51.2275 28.8905 52.1728 27.9453C53.1181 27 54.6395 27 57.6823 27H65.4762C68.6369 27 70.2171 27 71.1699 27.9933C72.1226 28.9866 72.0569 30.5655 71.9252 33.7234L71.6564 40.1781C71.5344 43.1045 71.4734 44.5676 70.537 45.466C69.6006 46.3641 68.1361 46.3641 65.2072 46.3641H57.6823C54.6395 46.3641 53.1181 46.3641 52.1728 45.4188C51.2275 44.4735 51.2275 42.9522 51.2275 39.9094V33.4547Z" fill="#70718A"/>
<path d="M71.1184 59.5422C71.2501 56.3844 71.3157 54.8054 70.363 53.8121C69.4103 52.8188 67.83 52.8188 64.6693 52.8188H57.6823C54.6395 52.8188 53.1181 52.8188 52.1728 53.7641C51.2275 54.7094 51.2275 56.2308 51.2275 59.2736V65.7283C51.2275 68.771 51.2275 70.2924 52.1728 71.2377C53.1181 72.183 54.6395 72.183 57.6823 72.183H64.4003C67.3293 72.183 68.7937 72.183 69.7301 71.2846C70.6665 70.3865 70.7275 68.9234 70.8495 65.9969L71.1184 59.5422Z" fill="#70718A"/>
</svg>
