<svg width="80" height="80" viewBox="0 0 80 80" fill="none" xmlns="http://www.w3.org/2000/svg">
<circle cx="40" cy="40" r="40" fill="white"/>
<circle cx="40" cy="40" r="39" stroke="#595B79" stroke-opacity="0.05" stroke-width="2"/>
<path d="M35.4944 54.3907V45.8643" stroke="#70718A" stroke-width="3" stroke-miterlimit="10" stroke-linecap="round" stroke-linejoin="round"/>
<path d="M31.7904 49.4047L35.4935 45.8643L39.1976 49.4047" fill="#70718A"/>
<path d="M31.7904 49.4047L35.4935 45.8643L39.1976 49.4047" stroke="#70718A" stroke-width="3" stroke-miterlimit="10" stroke-linecap="round" stroke-linejoin="round"/>
<path d="M59.0721 27.1771L23.4265 27.1733C22.7468 27.1733 22.1959 26.6462 22.1959 25.9962C22.1959 25.347 22.7468 24.8209 23.4265 24.8209L54.4197 24.8162C55.2334 24.8162 55.8929 24.1854 55.8929 23.4081C55.8929 22.6299 55.2334 22 54.4197 22H22.4375C20.5424 22 19 23.4743 19 25.2855V54.914C19 55.8518 19.7955 56.6127 20.7777 56.6127H24.5559C26.86 60.0733 30.9054 62.3764 35.5053 62.3764C40.1051 62.3764 44.1505 60.0737 46.4546 56.6131H59.0721C60.0542 56.6131 60.8497 55.8523 60.8497 54.9145V28.8766C60.8497 27.9379 60.0542 27.1771 59.0721 27.1771ZM35.5053 60.0296C29.7067 60.0296 24.9895 55.5214 24.9895 49.9796C24.9895 49.5624 25.017 49.1418 25.0706 48.7292C25.7207 43.7122 30.2071 39.9287 35.5053 39.9287C36.8626 39.9287 38.1821 40.1718 39.4284 40.6501C43.433 42.1901 46.021 45.8516 46.021 49.9796C46.021 55.5209 41.3038 60.0296 35.5053 60.0296ZM58.1307 38.6581H48.5013C46.681 38.6581 45.2053 37.2482 45.2053 35.5083C45.2053 33.7674 46.681 32.3574 48.5013 32.3574H58.1307V38.6581ZM47.4141 35.5083C47.4141 36.2536 48.0461 36.8586 48.8269 36.8586C49.6077 36.8586 50.2397 36.2536 50.2397 35.5083C50.2397 34.762 49.6077 34.1579 48.8269 34.1579C48.0461 34.1579 47.4141 34.762 47.4141 35.5083Z" fill="#70718A"/>
</svg>
