<svg width="13" height="13" viewBox="0 0 13 13" fill="none" xmlns="http://www.w3.org/2000/svg">
<path d="M7.48913 6.5L12.7645 1.20109C13.0471 0.918478 13.0471 0.471015 12.7645 0.211957C12.4819 -0.0706522 12.0344 -0.0706522 11.7754 0.211957L6.5 5.51087L1.20109 0.211957C0.918478 -0.0706522 0.471015 -0.0706522 0.211957 0.211957C-0.0706522 0.494565 -0.0706522 0.942029 0.211957 1.20109L5.48732 6.5L0.211957 11.7989C-0.0706522 12.0815 -0.0706522 12.529 0.211957 12.788C0.353261 12.9293 0.541667 13 0.706522 13C0.871377 13 1.05978 12.9293 1.20109 12.788L6.5 7.48913L11.7989 12.788C11.9402 12.9293 12.1286 13 12.2935 13C12.4583 13 12.6467 12.9293 12.788 12.788C13.0707 12.5054 13.0707 12.058 12.788 11.7989L7.48913 6.5Z" fill="#9E9DBD"/>
</svg>
