<svg width="412" height="310" viewBox="0 0 412 310" fill="none" xmlns="http://www.w3.org/2000/svg">
<path d="M32.5757 76.0377C33.7473 77.2093 35.6468 77.2093 36.8184 76.0377L47.4752 65.3808C48.6445 64.2115 48.6471 62.3165 47.481 61.144L27.5807 41.1349C26.4145 39.9624 26.4171 38.0674 27.5864 36.8981L47.4695 17.015C48.641 15.8434 48.641 13.944 47.4695 12.7724L36.8184 2.12132C35.6468 0.949748 33.7473 0.949747 32.5757 2.12132L3.06441 31.6327C-1.02147 35.7185 -1.02147 42.4405 3.06441 46.5264L32.5757 76.0377Z" fill="#C5CFD6"/>
<path d="M84.0583 16.7129L65.1885 63.8872C64.5732 65.4256 65.3215 67.1716 66.8598 67.7869L80.8695 73.3908C82.4078 74.0061 84.1538 73.2579 84.7692 71.7195L103.639 24.5452C104.254 23.0068 103.506 21.2609 101.968 20.6455L87.958 15.0417C86.4196 14.4263 84.6736 15.1746 84.0583 16.7129Z" fill="#C5CFD6"/>
<path d="M131.956 76.019C133.126 77.1993 135.032 77.2035 136.208 76.0283L165.71 46.5264C169.795 42.4405 169.795 35.7185 165.71 31.6327L136.198 2.12132C135.027 0.949744 133.127 0.949746 131.956 2.12132L121.305 12.7724C120.133 13.944 120.133 15.8434 121.305 17.015L141.182 36.8923C142.353 38.0639 142.353 39.9633 141.182 41.1349L121.295 61.0215C120.127 62.1894 120.123 64.0817 121.286 65.2548L131.956 76.019Z" fill="#C5CFD6"/>
<path d="M408.258 28.4694H192.829C191.172 28.4694 189.829 29.8126 189.829 31.4694V46.5579C189.829 48.2147 191.172 49.5579 192.829 49.5579H408.258C409.915 49.5579 411.258 48.2147 411.258 46.5579V31.4694C411.258 29.8126 409.915 28.4694 408.258 28.4694Z" fill="#C5CFD6"/>
<path d="M216.068 233.981C214.898 232.801 212.992 232.796 211.816 233.972L182.315 263.474C178.229 267.559 178.229 274.281 182.315 278.367L211.826 307.879C212.997 309.05 214.897 309.05 216.069 307.879L226.72 297.228C227.891 296.056 227.891 294.157 226.72 292.985L206.842 273.108C205.671 271.936 205.671 270.037 206.842 268.865L226.729 248.978C227.897 247.811 227.901 245.918 226.738 244.745L216.068 233.981Z" fill="#C5CFD6"/>
<path d="M263.315 248.68L244.445 295.854C243.83 297.393 244.578 299.138 246.117 299.754L260.126 305.358C261.665 305.973 263.411 305.225 264.026 303.686L282.896 256.512C283.511 254.974 282.763 253.228 281.224 252.612L267.215 247.009C265.676 246.393 263.93 247.141 263.315 248.68Z" fill="#C5CFD6"/>
<path d="M315.448 233.953C314.276 232.786 312.38 232.788 311.21 233.958L300.555 244.613C299.383 245.785 299.383 247.684 300.555 248.856L320.432 268.733C321.604 269.905 321.604 271.804 320.432 272.976L300.555 292.853C299.383 294.025 299.383 295.924 300.555 297.096L311.206 307.747C312.377 308.918 314.277 308.918 315.448 307.747L344.96 278.236C349.046 274.15 349.046 267.428 344.96 263.342L315.448 233.953Z" fill="#C5CFD6"/>
<path d="M155.194 239.354H45.2078C43.551 239.354 42.2078 240.697 42.2078 242.354V257.442C42.2078 259.099 43.551 260.442 45.2078 260.442H155.194C156.851 260.442 158.194 259.099 158.194 257.442V242.354C158.194 240.697 156.851 239.354 155.194 239.354Z" fill="#C5CFD6"/>
<path d="M355.534 70.6462H182.283C180.626 70.6462 179.283 71.9894 179.283 73.6462V88.7347C179.283 90.3915 180.626 91.7347 182.283 91.7347H355.534C357.191 91.7347 358.534 90.3915 358.534 88.7347V73.6462C358.534 71.9894 357.191 70.6462 355.534 70.6462Z" fill="#C5CFD6"/>
<path d="M260.638 112.823H3.03253C1.37568 112.823 0.0325317 114.166 0.0325317 115.823V130.912C0.0325317 132.568 1.37568 133.912 3.03254 133.912H260.638C262.295 133.912 263.638 132.568 263.638 130.912V115.823C263.638 114.166 262.295 112.823 260.638 112.823Z" fill="#C5CFD6"/>
<path d="M376.627 155H24.1235C22.4667 155 21.1235 156.343 21.1235 158V173.088C21.1235 174.745 22.4667 176.088 24.1235 176.088H376.627C378.284 176.088 379.627 174.745 379.627 173.088V158C379.627 156.343 378.284 155 376.627 155Z" fill="#C5CFD6"/>
<path d="M144.652 197.177H3.03253C1.37568 197.177 0.0325317 198.52 0.0325317 200.177V215.265C0.0325317 216.922 1.37567 218.265 3.03253 218.265H144.652C146.308 218.265 147.652 216.922 147.652 215.265V200.177C147.652 198.52 146.308 197.177 144.652 197.177Z" fill="#C5CFD6"/>
<path d="M134.11 281.531H24.1235C22.4667 281.531 21.1235 282.874 21.1235 284.531V299.619C21.1235 301.276 22.4667 302.619 24.1235 302.619H134.11C135.767 302.619 137.11 301.276 137.11 299.619V284.531C137.11 282.874 135.767 281.531 134.11 281.531Z" fill="#C5CFD6"/>
</svg>
